<?xml version="1.0" encoding="UTF-8" standalone="no"?>
<!-- Created with Inkscape (http://www.inkscape.org/) -->

<svg
   width="1920"
   height="1080"
   viewBox="0 0 1920 1080"
   version="1.1"
   id="svg1"
   xml:space="preserve"
   xmlns="http://www.w3.org/2000/svg"
   xmlns:svg="http://www.w3.org/2000/svg"><defs
     id="defs1"><filter
       style="color-interpolation-filters:sRGB"
       id="filter8"
       x="-0.061264897"
       y="-0.1403953"
       width="1.1525632"
       height="1.3496151"><feFlood
         result="flood"
         in="SourceGraphic"
         flood-opacity="0.498039"
         flood-color="rgb(0,0,0)"
         id="feFlood7" /><feGaussianBlur
         result="blur"
         in="SourceGraphic"
         stdDeviation="3.000000"
         id="feGaussianBlur7" /><feOffset
         result="offset"
         in="blur"
         dx="6.000000"
         dy="6.000000"
         id="feOffset7" /><feComposite
         result="comp1"
         operator="in"
         in="flood"
         in2="offset"
         id="feComposite7" /><feComposite
         result="fbSourceGraphic"
         operator="over"
         in="SourceGraphic"
         in2="comp1"
         id="feComposite8" /><feColorMatrix
         result="fbSourceGraphicAlpha"
         in="fbSourceGraphic"
         values="0 0 0 -1 0 0 0 0 -1 0 0 0 0 -1 0 0 0 0 1 0"
         id="feColorMatrix8" /><feFlood
         id="feFlood8"
         result="flood"
         in="fbSourceGraphic"
         flood-opacity="0.498039"
         flood-color="rgb(0,0,0)" /><feGaussianBlur
         id="feGaussianBlur8"
         result="blur"
         in="fbSourceGraphic"
         stdDeviation="3.000000" /><feOffset
         id="feOffset8"
         result="offset"
         in="blur"
         dx="6.000000"
         dy="6.000000" /><feComposite
         id="feComposite9"
         result="comp1"
         operator="in"
         in="flood"
         in2="offset" /><feComposite
         id="feComposite10"
         result="fbSourceGraphic"
         operator="over"
         in="fbSourceGraphic"
         in2="comp1" /><feColorMatrix
         result="fbSourceGraphicAlpha"
         in="fbSourceGraphic"
         values="0 0 0 -1 0 0 0 0 -1 0 0 0 0 -1 0 0 0 0 1 0"
         id="feColorMatrix10" /><feFlood
         id="feFlood10"
         result="flood"
         in="fbSourceGraphic"
         flood-opacity="0.498039"
         flood-color="rgb(0,0,0)" /><feGaussianBlur
         id="feGaussianBlur10"
         result="blur"
         in="fbSourceGraphic"
         stdDeviation="3.000000" /><feOffset
         id="feOffset10"
         result="offset"
         in="blur"
         dx="6.000000"
         dy="6.000000" /><feComposite
         id="feComposite11"
         result="comp1"
         operator="in"
         in="flood"
         in2="offset" /><feComposite
         id="feComposite12"
         result="comp2"
         operator="over"
         in="fbSourceGraphic"
         in2="comp1" /></filter><filter
       style="color-interpolation-filters:sRGB"
       id="filter14"
       x="-0.16553566"
       y="-0.12176677"
       width="1.4099773"
       height="1.3033267"><feFlood
         result="flood"
         in="SourceGraphic"
         flood-opacity="0.498039"
         flood-color="rgb(0,0,0)"
         id="feFlood12" /><feGaussianBlur
         result="blur"
         in="SourceGraphic"
         stdDeviation="3.000000"
         id="feGaussianBlur12" /><feOffset
         result="offset"
         in="blur"
         dx="6.000000"
         dy="6.000000"
         id="feOffset12" /><feComposite
         result="comp1"
         operator="in"
         in="flood"
         in2="offset"
         id="feComposite13" /><feComposite
         result="fbSourceGraphic"
         operator="over"
         in="SourceGraphic"
         in2="comp1"
         id="feComposite14" /><feColorMatrix
         result="fbSourceGraphicAlpha"
         in="fbSourceGraphic"
         values="0 0 0 -1 0 0 0 0 -1 0 0 0 0 -1 0 0 0 0 1 0"
         id="feColorMatrix14" /><feFlood
         id="feFlood14"
         result="flood"
         in="fbSourceGraphic"
         flood-opacity="0.498039"
         flood-color="rgb(0,0,0)" /><feGaussianBlur
         id="feGaussianBlur14"
         result="blur"
         in="fbSourceGraphic"
         stdDeviation="3.000000" /><feOffset
         id="feOffset14"
         result="offset"
         in="blur"
         dx="6.000000"
         dy="6.000000" /><feComposite
         id="feComposite15"
         result="comp1"
         operator="in"
         in="flood"
         in2="offset" /><feComposite
         id="feComposite16"
         result="fbSourceGraphic"
         operator="over"
         in="fbSourceGraphic"
         in2="comp1" /><feColorMatrix
         result="fbSourceGraphicAlpha"
         in="fbSourceGraphic"
         values="0 0 0 -1 0 0 0 0 -1 0 0 0 0 -1 0 0 0 0 1 0"
         id="feColorMatrix16" /><feFlood
         id="feFlood16"
         result="flood"
         in="fbSourceGraphic"
         flood-opacity="0.498039"
         flood-color="rgb(0,0,0)" /><feGaussianBlur
         id="feGaussianBlur16"
         result="blur"
         in="fbSourceGraphic"
         stdDeviation="3.000000" /><feOffset
         id="feOffset16"
         result="offset"
         in="blur"
         dx="6.000000"
         dy="6.000000" /><feComposite
         id="feComposite17"
         result="comp1"
         operator="in"
         in="flood"
         in2="offset" /><feComposite
         id="feComposite18"
         result="comp2"
         operator="over"
         in="fbSourceGraphic"
         in2="comp1" /></filter></defs><g
     id="layer4"
     style="display:inline"><rect
       style="fill:#009900;fill-opacity:1;stroke:none;stroke-width:30.2362;stroke-linecap:round;stroke-linejoin:round;stroke-dasharray:none"
       id="rect5"
       width="1920"
       height="1080"
       x="0"
       y="0" /></g><g
     id="layer6"
     style="opacity:0.406"
     transform="translate(0,318.6003)"><path
       d="m 390.30116,640.16299 v -182.4 c 0,-10.8 -9,-19.8 -19.8,-19.8 h -230.4 c -10.8,0 -19.2,9 -19.2,19.8 v 182.4 h 13.8 v 14.4 h -13.8 v 184.2 c 0,10.8 8.4,19.2 19.2,19.2 h 230.4 c 10.8,0 19.8,-8.4 19.8,-19.2 v -184.2 h -13.8 v -14.4 z m -115.2,183.6 h -39.6 v -169.2 h 39.6 z m 61.2,-337.8 v 25.2 h -61.2 v 129 h -39.6 v -129 h -61.2 v -39.6 h 162 z m 340.80039,154.2 v -182.4 c 0,-10.8 -9,-19.8 -19.8,-19.8 h -230.4 c -10.8,0 -19.2,9 -19.2,19.8 v 182.4 h 13.8 v 14.4 h -13.8 v 184.2 c 0,10.8 8.4,19.2 19.2,19.2 h 230.4 c 10.8,0 19.8,-8.4 19.8,-19.2 v -184.2 h -13.8 v -14.4 z m -219,-154.2 v -14.4 h 93 c 10.8,0 27.6,3.6 42,12.6 17.4,11.4 27,29.4 27,49.8 v 104.4 c 0,0.6 0,1.2 0,1.8 h -39.6 c 0,-0.6 0,-1.2 0,-1.8 v -104.4 c 0,-7.2 -3,-12.6 -10.2,-16.8 -6.6,-4.2 -15,-6 -19.2,-6 h -52.8 v 129 h -40.2 z m 125.4,337.8 -3,-9.6 -37.2,-106.2 h -45 v 115.8 h -40.2 v -169.2 h 40.2 v 13.2 h 57 c 13.2,0 20.4,-3 23.4,-13.2 h 40.2 c -0.6,7.2 -3,15 -6.6,22.8 -6.6,12 -16.2,20.4 -28.8,25.2 l 36,102 6.6,19.2 z m 380.40038,-183.6 v -182.4 c 0,-10.8 -9,-19.8 -19.8,-19.8 h -230.4 c -10.8,0 -19.2,9 -19.2,19.8 v 182.4 h 13.8 v 14.4 h -13.8 v 184.2 c 0,10.8 8.4,19.2 19.2,19.2 h 230.4 c 10.8,0 19.8,-8.4 19.8,-19.2 v -184.2 h -13.8 v -14.4 z m -157.2,-156.6 1.8,-12 h 40.8 l 2.4,12 28.2,156.6 h -40.8 l -10.2,-57.6 -10.2,57.6 h -40.2 z m 65.4,340.2 -1.8,-12 -15,-84 h -52.8 l -15,84 -1.8,12 h -40.8 l 3.6,-16.8 27,-152.4 h 40.2 l -6,33 h 38.4 l -6,-33 h 40.2 l 27.6,152.4 3,16.8 z m 378.60037,-183.6 v -182.4 c 0,-10.8 -9,-19.8 -19.8,-19.8 h -230.4 c -10.80001,0 -19.20001,9 -19.20001,19.8 v 182.4 h 13.8 v 14.4 h -13.8 v 184.2 c 0,10.8 8.4,19.2 19.20001,19.2 h 230.4 c 10.8,0 19.8,-8.4 19.8,-19.2 v -184.2 h -13.8 v -14.4 z m -215.4,-151.8 -3.6,-16.8 h 40.8 l 2.4,12 28.8,156.6 h -40.8 z m 102,323.4 -2.4,12 h -38.4 l -1.8,-12 -28.8,-157.2 h 40.2 l 9.6,52.2 9.6,-52.2 h 40.8 z m 58.8,-323.4 -27.6,151.8 h -40.8 l 29.4,-156.6 1.8,-12 h 40.8 z m 340.7996,151.8 v -182.4 c 0,-10.8 -9,-19.8 -19.8,-19.8 h -230.4 c -10.8,0 -19.2,9 -19.2,19.8 v 182.4 h 13.8 v 14.4 h -13.8 v 184.2 c 0,10.8 8.4,19.2 19.2,19.2 h 230.4 c 10.8,0 19.8,-8.4 19.8,-19.2 v -184.2 h -13.8 v -14.4 z m -54,27 h -121.8 v 116.4 h 121.8 v 40.2 h -162 v -169.2 h 162 z m 0,-156 h -121.8 v 116.4 h 121.8 v 12.6 h -162 v -168.6 h 162 z m 340.8004,129 v -182.4 c 0,-10.8 -9,-19.8 -19.8,-19.8 h -230.4 c -10.8,0 -19.2,9 -19.2,19.8 v 182.4 h 13.8 v 14.4 h -13.8 v 184.2 c 0,10.8 8.4,19.2 19.2,19.2 h 230.4 c 10.8,0 19.8,-8.4 19.8,-19.2 v -184.2 h -13.8 v -14.4 z m -216,-168.6 h 40.2 v 168.6 h -40.2 z m 162,351.6 h -14.4 l -133.2,0.6 h -14.4 v -169.2 h 40.2 v 129 h 121.8 z"
       id="text6"
       style="font-size:600px;font-family:Skyfont;-inkscape-font-specification:Skyfont;fill:#ffffff;stroke-width:30.2362;stroke-linecap:round;stroke-linejoin:round;stroke-dasharray:30.2362, 60.4724"
       aria-label="TRAVEL" /><path
       d="M 390.30121,220.16299 V 37.762993 c 0,-10.8 -9,-19.8 -19.8,-19.8 h -230.4 c -10.8,0 -19.2,9 -19.2,19.8 V 220.16299 h 13.8 v 14.4 h -13.8 v 184.2 c 0,10.8 8.4,19.2 19.2,19.2 h 230.4 c 10.8,0 19.8,-8.4 19.8,-19.2 v -184.2 h -13.8 v -14.4 z m -115.2,183.6 h -39.6 v -169.2 h 39.6 z m 61.2,-337.799997 v 25.2 h -61.2 V 220.16299 h -39.6 V 91.162993 h -61.2 v -39.6 h 162 z M 677.1016,220.16299 V 37.762993 c 0,-10.8 -9,-19.8 -19.8,-19.8 h -230.4 c -10.8,0 -19.2,9 -19.2,19.8 V 220.16299 h 13.8 v 14.4 h -13.8 v 184.2 c 0,10.8 8.4,19.2 19.2,19.2 h 230.4 c 10.8,0 19.8,-8.4 19.8,-19.2 v -184.2 h -13.8 v -14.4 z m -219,-154.199997 v -14.4 h 93 c 10.8,0 27.6,3.6 42,12.6 17.4,11.4 27,29.4 27,49.799997 v 104.4 c 0,0.6 0,1.2 0,1.8 h -39.6 c 0,-0.6 0,-1.2 0,-1.8 v -104.4 c 0,-7.2 -3,-12.6 -10.2,-16.799997 -6.6,-4.2 -15,-6 -19.2,-6 h -52.8 V 220.16299 h -40.2 z m 125.4,337.799997 -3,-9.6 -37.2,-106.2 h -45 v 115.8 h -40.2 v -169.2 h 40.2 v 13.2 h 57 c 13.2,0 20.4,-3 23.4,-13.2 h 40.2 c -0.6,7.2 -3,15 -6.6,22.8 -6.6,12 -16.2,20.4 -28.8,25.2 l 36,102 6.6,19.2 z m 380.40038,-183.6 V 37.762993 c 0,-10.8 -9,-19.8 -19.8,-19.8 h -230.4 c -10.8,0 -19.2,9 -19.2,19.8 V 220.16299 h 13.8 v 14.4 h -13.8 v 184.2 c 0,10.8 8.4,19.2 19.2,19.2 h 230.4 c 10.8,0 19.8,-8.4 19.8,-19.2 v -184.2 h -13.8 v -14.4 z m -157.2,-156.599997 1.8,-12 h 40.8 l 2.4,12 28.2,156.599997 h -40.8 l -10.2,-57.6 -10.2,57.6 h -40.2 z m 65.4,340.199997 -1.8,-12 -15,-84 h -52.8 l -15,84 -1.8,12 h -40.8 l 3.6,-16.8 27,-152.4 h 40.2 l -6,33 h 38.4 l -6,-33 h 40.2 l 27.6,152.4 3,16.8 z m 378.60032,-183.6 V 37.762993 c 0,-10.8 -9,-19.8 -19.8,-19.8 h -230.4 c -10.79996,0 -19.19996,9 -19.19996,19.8 V 220.16299 h 13.8 v 14.4 h -13.8 v 184.2 c 0,10.8 8.4,19.2 19.19996,19.2 h 230.4 c 10.8,0 19.8,-8.4 19.8,-19.2 v -184.2 h -13.8 v -14.4 z m -215.4,-151.799997 -3.6,-16.8 h 40.8 l 2.4,12 28.8,156.599997 h -40.8 z m 102.0001,323.399997 -2.4001,12 h -38.4 l -1.7999,-12 -28.8001,-157.2 h 40.2001 l 9.6,52.2 9.6,-52.2 h 40.8 z m 58.7999,-323.399997 -27.6,151.799997 h -40.8 l 29.4,-156.599997 1.8,-12 h 40.8 z M 1536.9019,220.16299 V 37.762993 c 0,-10.8 -9,-19.8 -19.7999,-19.8 h -230.4001 c -10.7999,0 -19.2,9 -19.2,19.8 V 220.16299 h 13.8 v 14.4 h -13.8 v 184.2 c 0,10.8 8.4,19.2 19.2,19.2 h 230.4001 c 10.7999,0 19.7999,-8.4 19.7999,-19.2 v -184.2 h -13.7999 v -14.4 z m -54,27 h -121.8 v 116.4 h 121.8 v 40.2 H 1320.902 v -169.2 h 161.9999 z m 0,-155.999997 h -121.8 V 207.56299 h 121.8 v 12.6 H 1320.902 V 51.562993 h 161.9999 z M 1823.7023,220.16299 V 37.762993 c 0,-10.8 -9,-19.8 -19.7999,-19.8 h -230.4 c -10.8001,0 -19.2001,9 -19.2001,19.8 V 220.16299 h 13.8 v 14.4 h -13.8 v 184.2 c 0,10.8 8.4,19.2 19.2001,19.2 h 230.4 c 10.7999,0 19.7999,-8.4 19.7999,-19.2 v -184.2 h -13.7999 v -14.4 z m -216,-168.599997 h 40.2001 V 220.16299 h -40.2001 z m 162,351.599997 h -14.4 l -133.2,0.6 h -14.4 v -169.2 h 40.2 v 129 h 121.8 z"
       id="text6-5"
       style="font-size:600px;font-family:Skyfont;-inkscape-font-specification:Skyfont;opacity:0.406;fill:#ffffff;stroke-width:30.2362;stroke-linecap:round;stroke-linejoin:round;stroke-dasharray:30.2362, 60.4724"
       aria-label="TRAVEL" /><path
       d="m 390.30118,-199.83701 v -182.4 c 0,-10.8 -9,-19.8 -19.8,-19.8 h -230.4 c -10.8,0 -19.2,9 -19.2,19.8 v 182.4 h 13.8 v 14.4 h -13.8 V -1.237007 c 0,10.8 8.4,19.2 19.2,19.2 h 230.4 c 10.8,0 19.8,-8.4 19.8,-19.2 V -185.43701 h -13.8 v -14.4 z m -115.2,183.600003 h -39.6 V -185.43701 h 39.6 z m 61.2,-337.800003 v 25.2 h -61.2 v 129 h -39.6 v -129 h -61.2 v -39.6 h 162 z m 340.8004,154.2 v -182.4 c 0,-10.8 -9,-19.8 -19.8,-19.8 h -230.4 c -10.8,0 -19.2,9 -19.2,19.8 v 182.4 h 13.8 v 14.4 h -13.8 V -1.237007 c 0,10.8 8.4,19.2 19.2,19.2 h 230.4 c 10.8,0 19.8,-8.4 19.8,-19.2 V -185.43701 h -13.8 v -14.4 z m -219,-154.2 v -14.4 h 93 c 10.8,0 27.6,3.6 42,12.6 17.4,11.4 27,29.4 27,49.8 v 104.4 c 0,0.6 0,1.2 0,1.8 h -39.6 c 0,-0.6 0,-1.2 0,-1.8 v -104.4 c 0,-7.2 -3,-12.6 -10.2,-16.8 -6.6,-4.2 -15,-6 -19.2,-6 h -52.8 v 129 h -40.2 z m 125.4,337.800003 -3,-9.6 -37.2,-106.200003 h -45 v 115.800003 h -40.2 V -185.43701 h 40.2 v 13.2 h 57 c 13.2,0 20.4,-3 23.4,-13.2 h 40.2 c -0.6,7.2 -3,15 -6.6,22.8 -6.6,12 -16.2,20.4 -28.8,25.2 l 36,102.000003 6.6,19.2 z m 380.4004,-183.600003 v -182.4 c 0,-10.8 -9,-19.8 -19.8,-19.8 h -230.4 c -10.8,0 -19.2,9 -19.2,19.8 v 182.4 h 13.8 v 14.4 h -13.8 V -1.237007 c 0,10.8 8.4,19.2 19.2,19.2 h 230.4 c 10.8,0 19.8,-8.4 19.8,-19.2 V -185.43701 h -13.8 v -14.4 z m -157.2,-156.6 1.8,-12 h 40.8 l 2.4,12 28.2,156.6 h -40.8 l -10.2,-57.6 -10.2,57.6 h -40.2 z m 65.4,340.200003 -1.8,-12 -15,-84.000003 h -52.8 l -15,84.000003 -1.8,12 h -40.8 l 3.6,-16.8 27,-152.400003 h 40.2 l -6,33 h 38.4 l -6,-33 h 40.2 l 27.6,152.400003 3,16.8 z M 1250.7023,-199.83701 v -182.4 c 0,-10.8 -9,-19.8 -19.7999,-19.8 h -230.4001 c -10.80002,0 -19.20002,9 -19.20002,19.8 v 182.4 h 13.8 v 14.4 h -13.8 V -1.237007 c 0,10.8 8.4,19.2 19.20002,19.2 h 230.4001 c 10.7999,0 19.7999,-8.4 19.7999,-19.2 V -185.43701 h -13.7999 v -14.4 z m -215.3999,-151.8 -3.6001,-16.8 h 40.8001 l 2.4,12 28.7999,156.6 h -40.7999 z m 101.9999,323.400003 -2.4,12 h -38.4 l -1.8,-12 -28.8,-157.200003 h 40.2 l 9.6,52.2 9.6,-52.2 h 40.8 z m 58.8,-323.400003 -27.5999,151.8 h -40.8001 l 29.4,-156.6 1.8001,-12 h 40.7999 z m 340.7996,151.8 v -182.4 c 0,-10.8 -9,-19.8 -19.7999,-19.8 h -230.4001 c -10.8,0 -19.2,9 -19.2,19.8 v 182.4 h 13.8 v 14.4 h -13.8 V -1.237007 c 0,10.8 8.4,19.2 19.2,19.2 h 230.4001 c 10.7999,0 19.7999,-8.4 19.7999,-19.2 V -185.43701 h -13.7999 v -14.4 z m -54,27 H 1361.102 v 116.400003 h 121.7999 v 40.2 h -162 V -185.43701 h 162 z m 0,-156 H 1361.102 v 116.4 h 121.7999 v 12.6 h -162 v -168.6 h 162 z m 340.8004,129 v -182.4 c 0,-10.8 -9,-19.8 -19.7999,-19.8 h -230.4 c -10.8001,0 -19.2001,9 -19.2001,19.8 v 182.4 h 13.8 v 14.4 h -13.8 V -1.237007 c 0,10.8 8.4,19.2 19.2001,19.2 h 230.4 c 10.7999,0 19.7999,-8.4 19.7999,-19.2 V -185.43701 h -13.7999 v -14.4 z m -216,-168.6 h 40.2001 v 168.6 h -40.2001 z m 162,351.600003 h -14.4 l -133.2,0.6 h -14.4 V -185.43701 h 40.2 v 129.000003 h 121.8 z"
       id="text6-7"
       style="font-size:600px;font-family:Skyfont;-inkscape-font-specification:Skyfont;opacity:0.406;fill:#ffffff;stroke-width:30.2362;stroke-linecap:round;stroke-linejoin:round;stroke-dasharray:30.2362, 60.4724"
       aria-label="TRAVEL" /></g><g
     id="layer2"
     style="display:inline"
     transform="translate(1.96155,-3.72274)"><path
       style="fill:#ffffff;fill-opacity:1;stroke:#000000;stroke-width:30.2362;stroke-linecap:round;stroke-linejoin:round;stroke-dasharray:none"
       d="m 617.38583,325.89281 249.85115,-99.57836 240.79862,92.3363 253.4721,-97.76784 -5.4315,528.67056 -246.2301,97.76784 -240.7986,-97.76784 -246.23013,99.57836 z"
       id="path1" /><path
       style="fill:none;fill-opacity:1;stroke:#000000;stroke-width:30.2362;stroke-linecap:round;stroke-linejoin:round;stroke-dasharray:none"
       d="m 867.23698,226.31445 1.81052,523.23902"
       id="path2" /><path
       style="fill:#aaaaaa;fill-opacity:1;stroke:#000000;stroke-width:30.2362;stroke-linecap:round;stroke-linejoin:round;stroke-dasharray:none"
       d="m 1108.0356,318.65075 1.8105,528.67056"
       id="path3" /><path
       style="fill:#cccccc;fill-opacity:1;stroke:#000000;stroke-width:30.2362;stroke-linecap:round;stroke-linejoin:round;stroke-dasharray:none;stroke-dashoffset:0;stroke-opacity:1"
       d="m 867.23698,226.31445 240.79862,92.3363 1.8105,528.67056 -240.7986,-97.76784 z"
       id="path7" /></g><g
     id="layer3"
     style="display:inline"><path
       style="fill:#0000ff;fill-opacity:1;stroke:#0000ff;stroke-width:30.2362;stroke-linecap:round;stroke-linejoin:round;stroke-dasharray:none;stroke-opacity:1;filter:url(#filter14)"
       d="M 1270.982,427.28169 1171.4036,289.6825 c -31.2628,-56.10715 0.9493,-138.45576 66.866,-159.4352 64.66,-15.71927 121.0583,11.21018 140.4381,82.03566 23.6852,75.51311 -55.1596,145.50779 -107.7257,214.99873 z"
       id="path4" /><ellipse
       style="fill:#ffffff;fill-opacity:1;stroke:#0000ff;stroke-width:30.2362;stroke-linecap:round;stroke-linejoin:round;stroke-dasharray:none;stroke-opacity:1"
       id="path5"
       cx="1269.7705"
       cy="238.11037"
       rx="47.073406"
       ry="46.620777" /></g><g
     id="layer5"
     style="display:inline"><path
       style="fill:none;fill-opacity:1;stroke:#ff0000;stroke-width:30.2362;stroke-linecap:round;stroke-linejoin:round;stroke-dasharray:30.2362, 60.4724;stroke-dashoffset:0;stroke-opacity:1;filter:url(#filter8)"
       d="M 672.39858,684.62909 C 695.65959,412.2832 974.38477,370.80507 1271.732,476.97989"
       id="path6" /></g></svg>
